<svg xmlns='http://www.w3.org/2000/svg' class="pikchr" viewBox="0 0 750.269 464.04">
<circle cx="17" cy="17" r="3.6"  style="fill:none;stroke-width:2.16;stroke:rgb(0,0,0);" />
<polygon points="43,17 32,21 32,12" style="fill:rgb(0,0,0)"/>
<path d="M20,17L38,17"  style="fill:none;stroke-width:2.16;stroke:rgb(0,0,0);" />
<path d="M59,32L111,32A15 15 0 0 0 126 17A15 15 0 0 0 111 2L59,2A15 15 0 0 0 43 17A15 15 0 0 0 59 32Z"  style="fill:none;stroke-width:2.16;stroke:rgb(0,0,0);" />
<text x="85" y="17" text-anchor="middle" fill="rgb(0,0,0)" dominant-baseline="central">IMPORT</text>
<polygon points="149,17 138,21 138,12" style="fill:rgb(0,0,0)"/>
<path d="M126,17L143,17"  style="fill:none;stroke-width:2.16;stroke:rgb(0,0,0);" />
<path d="M164,32L240,32A15 15 0 0 0 255 17A15 15 0 0 0 240 2L164,2A15 15 0 0 0 149 17A15 15 0 0 0 164 32Z"  style="fill:none;stroke-width:2.16;stroke:rgb(0,0,0);" />
<text x="202" y="17" text-anchor="middle" fill="rgb(0,0,0)" dominant-baseline="central">DATABASE</text>
<polygon points="278,17 267,21 267,12" style="fill:rgb(0,0,0)"/>
<path d="M255,17L273,17"  style="fill:none;stroke-width:2.16;stroke:rgb(0,0,0);" />
<path d="M278,32L348,32L348,2L278,2Z"  style="fill:none;stroke-width:2.16;stroke:rgb(0,0,0);" />
<text x="313" y="17" text-anchor="middle" fill="rgb(0,0,0)" dominant-baseline="central">vendor</text>
<polygon points="371,17 360,21 360,12" style="fill:rgb(0,0,0)"/>
<path d="M348,17L365,17"  style="fill:none;stroke-width:2.16;stroke:rgb(0,0,0);" />
<path d="M386,32L492,32A15 15 0 0 0 508 17A15 15 0 0 0 492 2L386,2A15 15 0 0 0 371 17A15 15 0 0 0 386 32Z"  style="fill:none;stroke-width:2.16;stroke:rgb(0,0,0);" />
<text x="439" y="17" text-anchor="middle" fill="rgb(0,0,0)" dominant-baseline="central">CONNECTION</text>
<polygon points="531,17 519,21 519,12" style="fill:rgb(0,0,0)"/>
<path d="M508,17L525,17"  style="fill:none;stroke-width:2.16;stroke:rgb(0,0,0);" />
<path d="M531,32L689,32L689,2L531,2Z"  style="fill:none;stroke-width:2.16;stroke:rgb(0,0,0);" />
<text x="610" y="17" text-anchor="middle" fill="rgb(0,0,0)" dominant-baseline="central">connection-string</text>
<polygon points="366,55 378,50 378,59" style="fill:rgb(0,0,0)"/>
<path d="M689,17 L 701,17 Q 713,17 713,32 L 713,40 Q 713,55 698,55 L 387,55 L 372,55"  style="fill:none;stroke-width:2.16;stroke:rgb(0,0,0);" />
<polygon points="40,130 28,135 28,126" style="fill:rgb(0,0,0)"/>
<path d="M366,55 L 32,55 Q 17,55 17,70 L 17,115 Q 17,130 25,130 L 34,130"  style="fill:none;stroke-width:2.16;stroke:rgb(0,0,0);" />
<polygon points="86,108 74,112 74,103" style="fill:rgb(0,0,0)"/>
<path d="M40,130 L 51,130 Q 63,130 63,119 Q 63,108 71,108 L 80,108"  style="fill:none;stroke-width:2.16;stroke:rgb(0,0,0);" />
<polygon points="132,108 120,112 120,103" style="fill:rgb(0,0,0)"/>
<path d="M86,108L126,108"  style="fill:none;stroke-width:2.16;stroke:rgb(0,0,0);" />
<path d="M147,123L207,123A15 15 0 0 0 222 108A15 15 0 0 0 207 92L147,92A15 15 0 0 0 132 108A15 15 0 0 0 147 123Z"  style="fill:none;stroke-width:2.16;stroke:rgb(0,0,0);" />
<text x="177" y="108" text-anchor="middle" fill="rgb(0,0,0)" dominant-baseline="central">SCHEMA</text>
<polygon points="245,108 234,112 234,103" style="fill:rgb(0,0,0)"/>
<path d="M222,108L239,108"  style="fill:none;stroke-width:2.16;stroke:rgb(0,0,0);" />
<path d="M245,123L403,123L403,92L245,92Z"  style="fill:none;stroke-width:2.16;stroke:rgb(0,0,0);" />
<text x="324" y="108" text-anchor="middle" fill="rgb(0,0,0)" dominant-baseline="central">src-schema-name</text>
<polygon points="449,108 438,112 438,103" style="fill:rgb(0,0,0)"/>
<path d="M403,108L443,108"  style="fill:none;stroke-width:2.16;stroke:rgb(0,0,0);" />
<path d="M464,123L504,123A15 15 0 0 0 519 108A15 15 0 0 0 504 92L464,92A15 15 0 0 0 449 108A15 15 0 0 0 464 123Z"  style="fill:none;stroke-width:2.16;stroke:rgb(0,0,0);" />
<text x="484" y="108" text-anchor="middle" fill="rgb(0,0,0)" dominant-baseline="central">TABLE</text>
<polygon points="542,108 530,112 530,103" style="fill:rgb(0,0,0)"/>
<path d="M519,108L536,108"  style="fill:none;stroke-width:2.16;stroke:rgb(0,0,0);" />
<path d="M542,123L678,123L678,92L542,92Z"  style="fill:none;stroke-width:2.16;stroke:rgb(0,0,0);" />
<text x="610" y="108" text-anchor="middle" fill="rgb(0,0,0)" dominant-baseline="central">src-table-name</text>
<polygon points="725,130 713,135 713,126" style="fill:rgb(0,0,0)"/>
<path d="M678,108 L 690,108 Q 702,108 702,119 Q 702,130 710,130 L 719,130"  style="fill:none;stroke-width:2.16;stroke:rgb(0,0,0);" />
<polygon points="268,77 256,82 256,73" style="fill:rgb(0,0,0)"/>
<path d="M86,108 L 97,108 Q 109,108 109,93 L 109,92 Q 109,77 124,77 L 247,77 L 262,77"  style="fill:none;stroke-width:2.16;stroke:rgb(0,0,0);" />
<polygon points="449,108 438,112 438,103" style="fill:rgb(0,0,0)"/>
<path d="M268,77 L 377,77 Q 392,77 403,77 Q 415,77 415,92 L 415,93 Q 415,108 429,108 L 443,108"  style="fill:none;stroke-width:2.16;stroke:rgb(0,0,0);" />
<polygon points="86,153 74,157 74,149" style="fill:rgb(0,0,0)"/>
<path d="M40,130 L 51,130 Q 63,130 63,142 Q 63,153 71,153 L 80,153"  style="fill:none;stroke-width:2.16;stroke:rgb(0,0,0);" />
<path d="M101,168L144,168A15 15 0 0 0 159 153A15 15 0 0 0 144 138L101,138A15 15 0 0 0 86 153A15 15 0 0 0 101 168Z"  style="fill:none;stroke-width:2.16;stroke:rgb(0,0,0);" />
<text x="123" y="153" text-anchor="middle" fill="rgb(0,0,0)" dominant-baseline="central">QUERY</text>
<polygon points="182,153 171,157 171,149" style="fill:rgb(0,0,0)"/>
<path d="M159,153L177,153"  style="fill:none;stroke-width:2.16;stroke:rgb(0,0,0);" />
<path d="M182,168L219,168L219,138L182,138Z"  style="fill:none;stroke-width:2.16;stroke:rgb(0,0,0);" />
<text x="201" y="153" text-anchor="middle" fill="rgb(0,0,0)" dominant-baseline="central">sql</text>
<polygon points="725,130 713,135 713,126" style="fill:rgb(0,0,0)"/>
<path d="M219,153 L 687,153 Q 702,153 702,142 Q 702,130 710,130 L 719,130"  style="fill:none;stroke-width:2.16;stroke:rgb(0,0,0);" />
<polygon points="361,191 372,186 372,195" style="fill:rgb(0,0,0)"/>
<path d="M725,130 L 736,130 Q 748,130 748,145 L 748,176 Q 748,191 733,191 L 382,191 L 367,191"  style="fill:none;stroke-width:2.16;stroke:rgb(0,0,0);" />
<polygon points="17,213 12,202 21,202" style="fill:rgb(0,0,0)"/>
<path d="M361,191 L 32,191 Q 17,191 17,199 L 17,208"  style="fill:none;stroke-width:2.16;stroke:rgb(0,0,0);" />
<polygon points="40,228 28,232 28,223" style="fill:rgb(0,0,0)"/>
<path d="M17,213 L 17,221 Q 17,228 25,228 L 34,228"  style="fill:none;stroke-width:2.16;stroke:rgb(0,0,0);" />
<path d="M55,243L82,243A15 15 0 0 0 97 228A15 15 0 0 0 82 213L55,213A15 15 0 0 0 40 228A15 15 0 0 0 55 243Z"  style="fill:none;stroke-width:2.16;stroke:rgb(0,0,0);" />
<text x="68" y="228" text-anchor="middle" fill="rgb(0,0,0)" dominant-baseline="central">INTO</text>
<polygon points="120,228 108,232 108,223" style="fill:rgb(0,0,0)"/>
<path d="M97,228L114,228"  style="fill:none;stroke-width:2.16;stroke:rgb(0,0,0);" />
<path d="M120,243L257,243L257,213L120,213Z"  style="fill:none;stroke-width:2.16;stroke:rgb(0,0,0);" />
<text x="188" y="228" text-anchor="middle" fill="rgb(0,0,0)" dominant-baseline="central">dst-table-name</text>
<polygon points="148,266 160,261 160,270" style="fill:rgb(0,0,0)"/>
<path d="M257,228 L 268,228 Q 280,228 280,243 L 280,251 Q 280,266 265,266 L 169,266 L 154,266"  style="fill:none;stroke-width:2.16;stroke:rgb(0,0,0);" />
<polygon points="17,288 12,277 21,277" style="fill:rgb(0,0,0)"/>
<path d="M148,266 L 32,266 Q 17,266 17,274 L 17,282"  style="fill:none;stroke-width:2.16;stroke:rgb(0,0,0);" />
<polygon points="40,303 28,307 28,298" style="fill:rgb(0,0,0)"/>
<path d="M17,288 L 17,295 Q 17,303 25,303 L 34,303"  style="fill:none;stroke-width:2.16;stroke:rgb(0,0,0);" />
<path d="M55,318L117,318A15 15 0 0 0 132 303L132,303A15 15 0 0 0 117 288L55,288A15 15 0 0 0 40 303L40,303A15 15 0 0 0 55 318Z"  style="fill:none;stroke-width:2.16;stroke:rgb(0,0,0);" />
<text x="86" y="303" text-anchor="middle" fill="rgb(0,0,0)" dominant-baseline="central">OPTIONS</text>
<polygon points="155,303 144,307 144,298" style="fill:rgb(0,0,0)"/>
<path d="M132,303L149,303"  style="fill:none;stroke-width:2.16;stroke:rgb(0,0,0);" />
<path d="M170,318A15 15 0 0 0 185 303L185,303A15 15 0 0 0 170 288A15 15 0 0 0 155 303L155,303A15 15 0 0 0 170 318Z"  style="fill:none;stroke-width:2.16;stroke:rgb(0,0,0);" />
<text x="170" y="303" text-anchor="middle" fill="rgb(0,0,0)" dominant-baseline="central">(</text>
<polygon points="231,303 220,307 220,298" style="fill:rgb(0,0,0)"/>
<path d="M185,303L226,303"  style="fill:none;stroke-width:2.16;stroke:rgb(0,0,0);" />
<path d="M231,318L272,318L272,288L231,288Z"  style="fill:none;stroke-width:2.16;stroke:rgb(0,0,0);" />
<text x="252" y="303" text-anchor="middle" fill="rgb(0,0,0)" dominant-baseline="central">key</text>
<polygon points="295,303 284,307 284,298" style="fill:rgb(0,0,0)"/>
<path d="M272,303L289,303"  style="fill:none;stroke-width:2.16;stroke:rgb(0,0,0);" />
<path d="M310,318A15 15 0 0 0 325 303L325,303A15 15 0 0 0 310 288A15 15 0 0 0 295 303L295,303A15 15 0 0 0 310 318Z"  style="fill:none;stroke-width:2.16;stroke:rgb(0,0,0);" />
<text x="310" y="303" text-anchor="middle" fill="rgb(0,0,0)" dominant-baseline="central">:</text>
<polygon points="348,303 337,307 337,298" style="fill:rgb(0,0,0)"/>
<path d="M325,303L343,303"  style="fill:none;stroke-width:2.16;stroke:rgb(0,0,0);" />
<path d="M348,318L405,318L405,288L348,288Z"  style="fill:none;stroke-width:2.16;stroke:rgb(0,0,0);" />
<text x="377" y="303" text-anchor="middle" fill="rgb(0,0,0)" dominant-baseline="central">value</text>
<polygon points="439,303 428,307 428,298" style="fill:rgb(0,0,0)"/>
<path d="M405,303L434,303"  style="fill:none;stroke-width:2.16;stroke:rgb(0,0,0);" />
<path d="M455,318A15 15 0 0 0 470 303L470,303A15 15 0 0 0 455 288A15 15 0 0 0 439 303L439,303A15 15 0 0 0 455 318Z"  style="fill:none;stroke-width:2.16;stroke:rgb(0,0,0);" />
<text x="455" y="303" text-anchor="middle" fill="rgb(0,0,0)" dominant-baseline="central">)</text>
<polygon points="255,371 266,366 266,375" style="fill:rgb(0,0,0)"/>
<path d="M470,303 L 481,303 Q 493,303 493,318 L 493,356 Q 493,371 478,371 L 276,371 L 261,371"  style="fill:none;stroke-width:2.16;stroke:rgb(0,0,0);" />
<polygon points="17,401 12,389 21,389" style="fill:rgb(0,0,0)"/>
<path d="M255,371 L 32,371 Q 17,371 17,383 L 17,395"  style="fill:none;stroke-width:2.16;stroke:rgb(0,0,0);" />
<path d="M17,431A15 15 0 0 0 32 416A15 15 0 0 0 17 401A15 15 0 0 0 2 416A15 15 0 0 0 17 431Z"  style="fill:none;stroke-width:2.16;stroke:rgb(0,0,0);" />
<text x="17" y="416" text-anchor="middle" fill="rgb(0,0,0)" dominant-baseline="central">;</text>
<polygon points="17,454 12,443 21,443" style="fill:rgb(0,0,0)"/>
<path d="M17,431L17,448"  style="fill:none;stroke-width:2.16;stroke:rgb(0,0,0);" />
<circle cx="17" cy="458" r="3.6"  style="fill:none;stroke-width:2.16;stroke:rgb(0,0,0);" />
<polygon points="416,325 412,314 421,314" style="fill:rgb(0,0,0)"/>
<path d="M405,303 L 411,303 Q 416,303 416,311 L 416,320"  style="fill:none;stroke-width:2.16;stroke:rgb(0,0,0);" />
<polygon points="318,340 330,336 330,345" style="fill:rgb(0,0,0)"/>
<path d="M416,325 L 416,333 Q 416,340 401,340 L 339,340 L 324,340"  style="fill:none;stroke-width:2.16;stroke:rgb(0,0,0);" />
<path d="M303,356A15 15 0 0 0 318 340A15 15 0 0 0 303 325A15 15 0 0 0 288 340A15 15 0 0 0 303 356Z"  style="fill:none;stroke-width:2.16;stroke:rgb(0,0,0);" />
<text x="303" y="340" text-anchor="middle" fill="rgb(0,0,0)" dominant-baseline="central">,</text>
<polygon points="231,303 220,307 220,298" style="fill:rgb(0,0,0)"/>
<path d="M288,340 L 223,340 Q 208,340 208,325 L 208,318 Q 208,303 217,303 L 226,303"  style="fill:none;stroke-width:2.16;stroke:rgb(0,0,0);" />
<polygon points="17,254 12,242 21,242" style="fill:rgb(0,0,0)"/>
<path d="M17,213L17,248"  style="fill:none;stroke-width:2.16;stroke:rgb(0,0,0);" />
<polygon points="17,288 12,277 21,277" style="fill:rgb(0,0,0)"/>
<path d="M17,254L17,282"  style="fill:none;stroke-width:2.16;stroke:rgb(0,0,0);" />
<polygon points="17,346 12,334 21,334" style="fill:rgb(0,0,0)"/>
<path d="M17,288L17,340"  style="fill:none;stroke-width:2.16;stroke:rgb(0,0,0);" />
<polygon points="17,401 12,389 21,389" style="fill:rgb(0,0,0)"/>
<path d="M17,346L17,395"  style="fill:none;stroke-width:2.16;stroke:rgb(0,0,0);" />
</svg>