<?xml version="1.0" encoding="UTF-8"?>
<svg xmlns="http://www.w3.org/2000/svg" xmlns:xlink="http://www.w3.org/1999/xlink" class="railroad-diagram" width="701.5" height="99" viewBox="0 0 701.5 99">
  <g transform="translate(.5 .5)">
    <g>
      <path d="M20 34v20m10 -20v20m-10 -10h20"></path>
    </g>
    <path d="M40 44h10"></path>
    <g class="terminal ">
      <path d="M50 44h0"></path>
      <path d="M129.5 44h0"></path>
      <rect x="50" y="33" width="79.5" height="22" rx="10" ry="10"></rect>
      <text x="89.75" y="48">DECLARE</text>
    </g>
    <path d="M129.5 44h10"></path>
    <g>
      <path d="M139.5 44h0"></path>
      <path d="M284 44h0"></path>
      <path d="M139.5 44h24"></path>
      <g>
        <path d="M163.5 44h96.5"></path>
      </g>
      <path d="M260 44h24"></path>
      <path d="M139.5 44a12 12 0 0 1 12 12v0a12 12 0 0 0 12 12"></path>
      <g class="terminal ">
        <path d="M163.5 68h0"></path>
        <path d="M260 68h0"></path>
        <rect x="163.5" y="57" width="96.5" height="22" rx="10" ry="10"></rect>
        <text x="211.75" y="72">PARAMETER</text>
      </g>
      <path d="M260 68a12 12 0 0 0 12 -12v0a12 12 0 0 1 12 -12"></path>
    </g>
    <path d="M284 44h10"></path>
    <g class="non-terminal ">
      <path d="M294 44h0"></path>
      <path d="M424.5 44h0"></path>
      <rect x="294" y="33" width="130.5" height="22"></rect>
      <text x="359.25" y="48">variable-name</text>
    </g>
    <path d="M424.5 44h10"></path>
    <g>
      <path d="M434.5 44h0"></path>
      <path d="M661.5 44h0"></path>
      <path d="M434.5 44a12 12 0 0 0 12 -12v0a12 12 0 0 1 12 -12"></path>
      <g>
        <path d="M458.5 20h179"></path>
      </g>
      <path d="M637.5 20a12 12 0 0 1 12 12v0a12 12 0 0 0 12 12"></path>
      <path d="M434.5 44h24"></path>
      <g>
        <path d="M458.5 44h0"></path>
        <path d="M637.5 44h0"></path>
        <g class="terminal ">
          <path d="M458.5 44h0"></path>
          <path d="M487 44h0"></path>
          <rect x="458.5" y="33" width="28.5" height="22" rx="10" ry="10"></rect>
          <text x="472.75" y="48">=</text>
        </g>
        <path d="M487 44h10"></path>
        <path d="M497 44h10"></path>
        <g class="non-terminal ">
          <path d="M507 44h0"></path>
          <path d="M637.5 44h0"></path>
          <rect x="507" y="33" width="130.5" height="22"></rect>
          <text x="572.25" y="48">initial-value</text>
        </g>
      </g>
      <path d="M637.5 44h24"></path>
    </g>
    <path d="M 661.5 44 h 20 m -10 -10 v 20 m 10 -20 v 20"></path>
  </g>
  <style>
    svg.railroad-diagram {
      
    }
    svg.railroad-diagram path {
      stroke-width: 3;
      stroke: black;
      fill: rgba(0, 0, 0, 0);
    }
    svg.railroad-diagram text {
      font: bold 14px monospace;
      text-anchor: middle;
      white-space: pre;
    }
    svg.railroad-diagram text.diagram-text {
      font-size: 12px;
    }
    svg.railroad-diagram text.diagram-arrow {
      font-size: 16px;
    }
    svg.railroad-diagram text.label {
      text-anchor: start;
    }
    svg.railroad-diagram text.comment {
      font: bold 12px monospace;
      fill: Orchid;
    }
    svg.railroad-diagram rect {
      stroke-width: 3;
      stroke: black;
      fill: PaleGreen;
    }
    svg.railroad-diagram rect.group-box {
      stroke: Plum;
      stroke-dasharray: 10 5;
      fill: none;
    }
    svg.railroad-diagram path.diagram-text {
      stroke-width: 3;
      stroke: black;
      fill: white;
      cursor: help;
    }
    svg.railroad-diagram g.diagram-text:hover path.diagram-text {
      fill: #eee;
    }
    svg.railroad-diagram g.optional-path rect {
      fill: PaleTurquoise;
    }
    
    @media (prefers-color-scheme: dark) {
      .day.dark-scheme {
        background: #333;
        color: white;
      }
      .night.dark-scheme {
        background: black;
        color: #ddd;
      }
    }
    
    @media (prefers-color-scheme: light) {
      svg.railroad-diagram {
        
      }
      svg.railroad-diagram path {
        stroke: black;
        fill: rgba(0, 0, 0, 0);
      }
      svg.railroad-diagram text.comment {
        fill: Orchid;
      }
      svg.railroad-diagram rect {
        stroke: black;
        fill: PaleGreen;
      }
      svg.railroad-diagram rect.group-box {
        stroke: Plum;
      }
      svg.railroad-diagram path.diagram-text {
        stroke: black;
        fill: white;
      }
      svg.railroad-diagram g.diagram-text:hover path.diagram-text {
        fill: #eee;
      }
      svg.railroad-diagram g.optional-path rect {
        fill: PaleTurquoise;
      }
    }
    
    @media (prefers-color-scheme: dark) {
      svg.railroad-diagram {
        background-color: #21222c;
      }
      svg.railroad-diagram path {
        stroke: silver;
        fill: rgba(0, 0, 0, 0);
      }
      svg.railroad-diagram text {
        fill: whitesmoke;
      }
      svg.railroad-diagram text.comment {
        fill: Orchid;
      }
      svg.railroad-diagram rect {
        stroke: silver;
        fill: DarkGreen;
      }
      svg.railroad-diagram rect.group-box {
        stroke: Plum;
      }
      svg.railroad-diagram path.diagram-text {
        stroke: silver;
        fill: darkslategrey;
      }
      svg.railroad-diagram g.diagram-text:hover path.diagram-text {
        fill: dimgray;
      }
      svg.railroad-diagram g.optional-path rect {
        fill: RoyalBlue;
      }
    }
  </style>
</svg>
