<?xml version="1.0" encoding="UTF-8"?>
<svg xmlns="http://www.w3.org/2000/svg" xmlns:xlink="http://www.w3.org/1999/xlink" class="railroad-diagram" width="772" height="181" viewBox="0 0 772 181">
  <g transform="translate(.5 .5)">
    <g>
      <path d="M20 21v20m10 -20v20m-10 -10h20"></path>
    </g>
    <path d="M40 31h10"></path>
    <g>
      <path d="M50 31h0"></path>
      <path d="M50 31h12"></path>
      <g>
        <path d="M62 31h10"></path>
        <path d="M700 31h10"></path>
        <g class="terminal ">
          <path d="M72 31h0"></path>
          <path d="M143 31h0"></path>
          <rect x="72" y="20" width="71" height="22" rx="10" ry="10"></rect>
          <text x="107.5" y="35">EXPORT</text>
        </g>
        <path d="M143 31h10"></path>
        <g>
          <path d="M153 31h0"></path>
          <path d="M255 31h0"></path>
          <path d="M153 31h24"></path>
          <g class="terminal ">
            <path d="M177 31h4.25"></path>
            <path d="M226.75 31h4.25"></path>
            <rect x="181.25" y="20" width="45.5" height="22" rx="10" ry="10"></rect>
            <text x="204" y="35">TXT</text>
          </g>
          <path d="M231 31h24"></path>
          <path d="M153 31a12 12 0 0 1 12 12v8a12 12 0 0 0 12 12"></path>
          <g class="terminal ">
            <path d="M177 63h0"></path>
            <path d="M231 63h0"></path>
            <rect x="177" y="52" width="54" height="22" rx="10" ry="10"></rect>
            <text x="204" y="67">TEXT</text>
          </g>
          <path d="M231 63a12 12 0 0 0 12 -12v-8a12 12 0 0 1 12 -12"></path>
        </g>
        <path d="M255 31h10"></path>
        <g class="non-terminal ">
          <path d="M265 31h0"></path>
          <path d="M353 31h0"></path>
          <rect x="265" y="20" width="88" height="22"></rect>
          <text x="309" y="35">filename</text>
        </g>
        <path d="M353 31h10"></path>
        <path d="M363 31h10"></path>
        <g class="terminal ">
          <path d="M373 31h0"></path>
          <path d="M427 31h0"></path>
          <rect x="373" y="20" width="54" height="22" rx="10" ry="10"></rect>
          <text x="400" y="35">FROM</text>
        </g>
        <path d="M427 31h10"></path>
        <path d="M437 31h10"></path>
        <g class="terminal ">
          <path d="M447 31h0"></path>
          <path d="M475.5 31h0"></path>
          <rect x="447" y="20" width="28.5" height="22" rx="10" ry="10"></rect>
          <text x="461.25" y="35">(</text>
        </g>
        <path d="M475.5 31h10"></path>
        <path d="M485.5 31h10"></path>
        <g class="non-terminal ">
          <path d="M495.5 31h0"></path>
          <path d="M651.5 31h0"></path>
          <rect x="495.5" y="20" width="156" height="22"></rect>
          <text x="573.5" y="35">select-statement</text>
        </g>
        <path d="M651.5 31h10"></path>
        <path d="M661.5 31h10"></path>
        <g class="terminal ">
          <path d="M671.5 31h0"></path>
          <path d="M700 31h0"></path>
          <rect x="671.5" y="20" width="28.5" height="22" rx="10" ry="10"></rect>
          <text x="685.75" y="35">)</text>
        </g>
      </g>
      <path d="M710 31a12 12 0 0 1 12 12v29a12 12 0 0 1 -12 12h-648a12 12 0 0 0 -12 12v10a12 12 0 0 0 12 12"></path>
      <g>
        <path d="M62 118h101.5"></path>
        <path d="M608.5 118h101.5"></path>
        <g>
          <path d="M163.5 118h0"></path>
          <path d="M608.5 118h0"></path>
          <path d="M163.5 118a12 12 0 0 0 12 -12v0a12 12 0 0 1 12 -12"></path>
          <g>
            <path d="M187.5 94h397"></path>
          </g>
          <path d="M584.5 94a12 12 0 0 1 12 12v0a12 12 0 0 0 12 12"></path>
          <path d="M163.5 118h24"></path>
          <g>
            <path d="M187.5 118h0"></path>
            <path d="M584.5 118h0"></path>
            <g class="terminal ">
              <path d="M187.5 118h0"></path>
              <path d="M267 118h0"></path>
              <rect x="187.5" y="107" width="79.5" height="22" rx="10" ry="10"></rect>
              <text x="227.25" y="122">OPTIONS</text>
            </g>
            <path d="M267 118h10"></path>
            <path d="M277 118h10"></path>
            <g class="terminal ">
              <path d="M287 118h0"></path>
              <path d="M315.5 118h0"></path>
              <rect x="287" y="107" width="28.5" height="22" rx="10" ry="10"></rect>
              <text x="301.25" y="122">(</text>
            </g>
            <path d="M315.5 118h10"></path>
            <path d="M325.5 118h10"></path>
            <g>
              <path d="M335.5 118h0"></path>
              <path d="M536 118h0"></path>
              <path d="M335.5 118h12"></path>
              <g>
                <path d="M347.5 118h0"></path>
                <path d="M524 118h0"></path>
                <g class="non-terminal ">
                  <path d="M347.5 118h0"></path>
                  <path d="M393 118h0"></path>
                  <rect x="347.5" y="107" width="45.5" height="22"></rect>
                  <text x="370.25" y="122">key</text>
                </g>
                <path d="M393 118h10"></path>
                <path d="M403 118h10"></path>
                <g class="terminal ">
                  <path d="M413 118h0"></path>
                  <path d="M441.5 118h0"></path>
                  <rect x="413" y="107" width="28.5" height="22" rx="10" ry="10"></rect>
                  <text x="427.25" y="122">:</text>
                </g>
                <path d="M441.5 118h10"></path>
                <path d="M451.5 118h10"></path>
                <g class="non-terminal ">
                  <path d="M461.5 118h0"></path>
                  <path d="M524 118h0"></path>
                  <rect x="461.5" y="107" width="62.5" height="22"></rect>
                  <text x="492.75" y="122">value</text>
                </g>
              </g>
              <path d="M524 118h12"></path>
              <path d="M347.5 118a12 12 0 0 0 -12 12v8a12 12 0 0 0 12 12"></path>
              <g class="terminal ">
                <path d="M347.5 150h74"></path>
                <path d="M450 150h74"></path>
                <rect x="421.5" y="139" width="28.5" height="22" rx="10" ry="10"></rect>
                <text x="435.75" y="154">,</text>
              </g>
              <path d="M524 150a12 12 0 0 0 12 -12v-8a12 12 0 0 0 -12 -12"></path>
            </g>
            <path d="M536 118h10"></path>
            <path d="M546 118h10"></path>
            <g class="terminal ">
              <path d="M556 118h0"></path>
              <path d="M584.5 118h0"></path>
              <rect x="556" y="107" width="28.5" height="22" rx="10" ry="10"></rect>
              <text x="570.25" y="122">)</text>
            </g>
          </g>
          <path d="M584.5 118h24"></path>
        </g>
      </g>
      <path d="M710 118h12"></path>
      <path d="M722 118h0"></path>
    </g>
    <path d="M722 118h10"></path>
    <path d="M 732 118 h 20 m -10 -10 v 20 m 10 -20 v 20"></path>
  </g>
  <style>
    svg.railroad-diagram {
      
    }
    svg.railroad-diagram path {
      stroke-width: 3;
      stroke: black;
      fill: rgba(0, 0, 0, 0);
    }
    svg.railroad-diagram text {
      font: bold 14px monospace;
      text-anchor: middle;
      white-space: pre;
    }
    svg.railroad-diagram text.diagram-text {
      font-size: 12px;
    }
    svg.railroad-diagram text.diagram-arrow {
      font-size: 16px;
    }
    svg.railroad-diagram text.label {
      text-anchor: start;
    }
    svg.railroad-diagram text.comment {
      font: bold 12px monospace;
      fill: Orchid;
    }
    svg.railroad-diagram rect {
      stroke-width: 3;
      stroke: black;
      fill: PaleGreen;
    }
    svg.railroad-diagram rect.group-box {
      stroke: Plum;
      stroke-dasharray: 10 5;
      fill: none;
    }
    svg.railroad-diagram path.diagram-text {
      stroke-width: 3;
      stroke: black;
      fill: white;
      cursor: help;
    }
    svg.railroad-diagram g.diagram-text:hover path.diagram-text {
      fill: #eee;
    }
    svg.railroad-diagram g.optional-path rect {
      fill: PaleTurquoise;
    }
    
    @media (prefers-color-scheme: dark) {
      .day.dark-scheme {
        background: #333;
        color: white;
      }
      .night.dark-scheme {
        background: black;
        color: #ddd;
      }
    }
    
    @media (prefers-color-scheme: light) {
      svg.railroad-diagram {
        
      }
      svg.railroad-diagram path {
        stroke: black;
        fill: rgba(0, 0, 0, 0);
      }
      svg.railroad-diagram text.comment {
        fill: Orchid;
      }
      svg.railroad-diagram rect {
        stroke: black;
        fill: PaleGreen;
      }
      svg.railroad-diagram rect.group-box {
        stroke: Plum;
      }
      svg.railroad-diagram path.diagram-text {
        stroke: black;
        fill: white;
      }
      svg.railroad-diagram g.diagram-text:hover path.diagram-text {
        fill: #eee;
      }
      svg.railroad-diagram g.optional-path rect {
        fill: PaleTurquoise;
      }
    }
    
    @media (prefers-color-scheme: dark) {
      svg.railroad-diagram {
        background-color: #21222c;
      }
      svg.railroad-diagram path {
        stroke: silver;
        fill: rgba(0, 0, 0, 0);
      }
      svg.railroad-diagram text {
        fill: whitesmoke;
      }
      svg.railroad-diagram text.comment {
        fill: Orchid;
      }
      svg.railroad-diagram rect {
        stroke: silver;
        fill: DarkGreen;
      }
      svg.railroad-diagram rect.group-box {
        stroke: Plum;
      }
      svg.railroad-diagram path.diagram-text {
        stroke: silver;
        fill: darkslategrey;
      }
      svg.railroad-diagram g.diagram-text:hover path.diagram-text {
        fill: dimgray;
      }
      svg.railroad-diagram g.optional-path rect {
        fill: RoyalBlue;
      }
    }
  </style>
</svg>
