<?xml version="1.0" encoding="UTF-8"?>
<svg xmlns="http://www.w3.org/2000/svg" xmlns:xlink="http://www.w3.org/1999/xlink" class="railroad-diagram" width="721" height="165" viewBox="0 0 721 165">
  <g transform="translate(.5 .5)">
    <g>
      <path d="M20 21v20m10 -20v20m-10 -10h20"></path>
    </g>
    <path d="M40 31h10"></path>
    <g>
      <path d="M50 31h0"></path>
      <path d="M50 31h12"></path>
      <g>
        <path d="M62 31h10"></path>
        <path d="M649 31h10"></path>
        <g class="terminal ">
          <path d="M72 31h0"></path>
          <path d="M117.5 31h0"></path>
          <rect x="72" y="20" width="45.5" height="22" rx="10" ry="10"></rect>
          <text x="94.75" y="35">FOR</text>
        </g>
        <path d="M117.5 31h10"></path>
        <path d="M127.5 31h10"></path>
        <g class="non-terminal ">
          <path d="M137.5 31h0"></path>
          <path d="M268 31h0"></path>
          <rect x="137.5" y="20" width="130.5" height="22"></rect>
          <text x="202.75" y="35">variable-name</text>
        </g>
        <path d="M268 31h10"></path>
        <path d="M278 31h10"></path>
        <g class="terminal ">
          <path d="M288 31h0"></path>
          <path d="M316.5 31h0"></path>
          <rect x="288" y="20" width="28.5" height="22" rx="10" ry="10"></rect>
          <text x="302.25" y="35">=</text>
        </g>
        <path d="M316.5 31h10"></path>
        <path d="M326.5 31h10"></path>
        <g class="non-terminal ">
          <path d="M336.5 31h0"></path>
          <path d="M458.5 31h0"></path>
          <rect x="336.5" y="20" width="122" height="22"></rect>
          <text x="397.5" y="35">first-number</text>
        </g>
        <path d="M458.5 31h10"></path>
        <path d="M468.5 31h10"></path>
        <g class="terminal ">
          <path d="M478.5 31h0"></path>
          <path d="M515.5 31h0"></path>
          <rect x="478.5" y="20" width="37" height="22" rx="10" ry="10"></rect>
          <text x="497" y="35">TO</text>
        </g>
        <path d="M515.5 31h10"></path>
        <path d="M525.5 31h10"></path>
        <g class="non-terminal ">
          <path d="M535.5 31h0"></path>
          <path d="M649 31h0"></path>
          <rect x="535.5" y="20" width="113.5" height="22"></rect>
          <text x="592.25" y="35">last-number</text>
        </g>
      </g>
      <path d="M659 31a12 12 0 0 1 12 12v0a12 12 0 0 1 -12 12h-597a12 12 0 0 0 -12 12v10a12 12 0 0 0 12 12"></path>
      <g>
        <path d="M62 89h38.25"></path>
        <path d="M620.75 89h38.25"></path>
        <g>
          <path d="M100.25 89h0"></path>
          <path d="M276.25 89h0"></path>
          <path d="M100.25 89h24"></path>
          <g>
            <path d="M124.25 89h128"></path>
          </g>
          <path d="M252.25 89h24"></path>
          <path d="M100.25 89a12 12 0 0 1 12 12v0a12 12 0 0 0 12 12"></path>
          <g>
            <path d="M124.25 113h0"></path>
            <path d="M252.25 113h0"></path>
            <g class="terminal ">
              <path d="M124.25 113h0"></path>
              <path d="M178.25 113h0"></path>
              <rect x="124.25" y="102" width="54" height="22" rx="10" ry="10"></rect>
              <text x="151.25" y="117">STEP</text>
            </g>
            <path d="M178.25 113h10"></path>
            <path d="M188.25 113h10"></path>
            <g class="non-terminal ">
              <path d="M198.25 113h0"></path>
              <path d="M252.25 113h0"></path>
              <rect x="198.25" y="102" width="54" height="22"></rect>
              <text x="225.25" y="117">step</text>
            </g>
          </g>
          <path d="M252.25 113a12 12 0 0 0 12 -12v0a12 12 0 0 1 12 -12"></path>
        </g>
        <g>
          <path d="M276.25 89h0"></path>
          <path d="M620.75 89h0"></path>
          <path d="M276.25 89h24"></path>
          <g>
            <path d="M300.25 89h0"></path>
            <path d="M596.75 89h0"></path>
            <g class="terminal ">
              <path d="M300.25 89h0"></path>
              <path d="M362.75 89h0"></path>
              <rect x="300.25" y="78" width="62.5" height="22" rx="10" ry="10"></rect>
              <text x="331.5" y="93">BEGIN</text>
            </g>
            <path d="M362.75 89h10"></path>
            <g>
              <path d="M372.75 89h0"></path>
              <path d="M541.25 89h0"></path>
              <path d="M372.75 89a12 12 0 0 0 12 -12v0a12 12 0 0 1 12 -12"></path>
              <g>
                <path d="M396.75 65h120.5"></path>
              </g>
              <path d="M517.25 65a12 12 0 0 1 12 12v0a12 12 0 0 0 12 12"></path>
              <path d="M372.75 89h24"></path>
              <g>
                <path d="M396.75 89h0"></path>
                <path d="M517.25 89h0"></path>
                <path d="M396.75 89h12"></path>
                <g class="non-terminal ">
                  <path d="M408.75 89h0"></path>
                  <path d="M505.25 89h0"></path>
                  <rect x="408.75" y="78" width="96.5" height="22"></rect>
                  <text x="457" y="93">statement</text>
                </g>
                <path d="M505.25 89h12"></path>
                <path d="M408.75 89a12 12 0 0 0 -12 12v0a12 12 0 0 0 12 12"></path>
                <g>
                  <path d="M408.75 113h96.5"></path>
                </g>
                <path d="M505.25 113a12 12 0 0 0 12 -12v0a12 12 0 0 0 -12 -12"></path>
              </g>
              <path d="M517.25 89h24"></path>
            </g>
            <path d="M541.25 89h10"></path>
            <g class="terminal ">
              <path d="M551.25 89h0"></path>
              <path d="M596.75 89h0"></path>
              <rect x="551.25" y="78" width="45.5" height="22" rx="10" ry="10"></rect>
              <text x="574" y="93">END</text>
            </g>
          </g>
          <path d="M596.75 89h24"></path>
          <path d="M276.25 89a12 12 0 0 1 12 12v21a12 12 0 0 0 12 12"></path>
          <g class="non-terminal ">
            <path d="M300.25 134h100"></path>
            <path d="M496.75 134h100"></path>
            <rect x="400.25" y="123" width="96.5" height="22"></rect>
            <text x="448.5" y="138">statement</text>
          </g>
          <path d="M596.75 134a12 12 0 0 0 12 -12v-21a12 12 0 0 1 12 -12"></path>
        </g>
      </g>
      <path d="M659 89h12"></path>
      <path d="M671 89h0"></path>
    </g>
    <path d="M671 89h10"></path>
    <path d="M 681 89 h 20 m -10 -10 v 20 m 10 -20 v 20"></path>
  </g>
  <style>
    svg.railroad-diagram {
      
    }
    svg.railroad-diagram path {
      stroke-width: 3;
      stroke: black;
      fill: rgba(0, 0, 0, 0);
    }
    svg.railroad-diagram text {
      font: bold 14px monospace;
      text-anchor: middle;
      white-space: pre;
    }
    svg.railroad-diagram text.diagram-text {
      font-size: 12px;
    }
    svg.railroad-diagram text.diagram-arrow {
      font-size: 16px;
    }
    svg.railroad-diagram text.label {
      text-anchor: start;
    }
    svg.railroad-diagram text.comment {
      font: bold 12px monospace;
      fill: Orchid;
    }
    svg.railroad-diagram rect {
      stroke-width: 3;
      stroke: black;
      fill: PaleGreen;
    }
    svg.railroad-diagram rect.group-box {
      stroke: Plum;
      stroke-dasharray: 10 5;
      fill: none;
    }
    svg.railroad-diagram path.diagram-text {
      stroke-width: 3;
      stroke: black;
      fill: white;
      cursor: help;
    }
    svg.railroad-diagram g.diagram-text:hover path.diagram-text {
      fill: #eee;
    }
    svg.railroad-diagram g.optional-path rect {
      fill: PaleTurquoise;
    }
    
    @media (prefers-color-scheme: dark) {
      .day.dark-scheme {
        background: #333;
        color: white;
      }
      .night.dark-scheme {
        background: black;
        color: #ddd;
      }
    }
    
    @media (prefers-color-scheme: light) {
      svg.railroad-diagram {
        
      }
      svg.railroad-diagram path {
        stroke: black;
        fill: rgba(0, 0, 0, 0);
      }
      svg.railroad-diagram text.comment {
        fill: Orchid;
      }
      svg.railroad-diagram rect {
        stroke: black;
        fill: PaleGreen;
      }
      svg.railroad-diagram rect.group-box {
        stroke: Plum;
      }
      svg.railroad-diagram path.diagram-text {
        stroke: black;
        fill: white;
      }
      svg.railroad-diagram g.diagram-text:hover path.diagram-text {
        fill: #eee;
      }
      svg.railroad-diagram g.optional-path rect {
        fill: PaleTurquoise;
      }
    }
    
    @media (prefers-color-scheme: dark) {
      svg.railroad-diagram {
        background-color: #21222c;
      }
      svg.railroad-diagram path {
        stroke: silver;
        fill: rgba(0, 0, 0, 0);
      }
      svg.railroad-diagram text {
        fill: whitesmoke;
      }
      svg.railroad-diagram text.comment {
        fill: Orchid;
      }
      svg.railroad-diagram rect {
        stroke: silver;
        fill: DarkGreen;
      }
      svg.railroad-diagram rect.group-box {
        stroke: Plum;
      }
      svg.railroad-diagram path.diagram-text {
        stroke: silver;
        fill: darkslategrey;
      }
      svg.railroad-diagram g.diagram-text:hover path.diagram-text {
        fill: dimgray;
      }
      svg.railroad-diagram g.optional-path rect {
        fill: RoyalBlue;
      }
    }
  </style>
</svg>
