<?xml version="1.0" encoding="UTF-8"?>
<svg xmlns="http://www.w3.org/2000/svg" xmlns:xlink="http://www.w3.org/1999/xlink" class="railroad-diagram" width="720" height="244" viewBox="0 0 720 244">
  <g transform="translate(.5 .5)">
    <g>
      <path d="M20 34v20m10 -20v20m-10 -10h20"></path>
    </g>
    <path d="M40 44h10"></path>
    <g>
      <path d="M50 44h0"></path>
      <path d="M50 44h12"></path>
      <g>
        <path d="M62 44h10"></path>
        <path d="M648 44h10"></path>
        <g class="terminal ">
          <path d="M72 44h0"></path>
          <path d="M109 44h0"></path>
          <rect x="72" y="33" width="37" height="22" rx="10" ry="10"></rect>
          <text x="90.5" y="48">IF</text>
        </g>
        <path d="M109 44h10"></path>
        <path d="M119 44h10"></path>
        <g class="non-terminal ">
          <path d="M129 44h0"></path>
          <path d="M225.5 44h0"></path>
          <rect x="129" y="33" width="96.5" height="22"></rect>
          <text x="177.25" y="48">condition</text>
        </g>
        <path d="M225.5 44h10"></path>
        <g>
          <path d="M235.5 44h0"></path>
          <path d="M648 44h0"></path>
          <path d="M235.5 44h24"></path>
          <g>
            <path d="M259.5 44h0"></path>
            <path d="M624 44h0"></path>
            <g class="terminal ">
              <path d="M259.5 44h0"></path>
              <path d="M322 44h0"></path>
              <rect x="259.5" y="33" width="62.5" height="22" rx="10" ry="10"></rect>
              <text x="290.75" y="48">BEGIN</text>
            </g>
            <path d="M322 44h10"></path>
            <g>
              <path d="M332 44h0"></path>
              <path d="M568.5 44h0"></path>
              <path d="M332 44a12 12 0 0 0 12 -12v0a12 12 0 0 1 12 -12"></path>
              <g>
                <path d="M356 20h188.5"></path>
              </g>
              <path d="M544.5 20a12 12 0 0 1 12 12v0a12 12 0 0 0 12 12"></path>
              <path d="M332 44h24"></path>
              <g>
                <path d="M356 44h0"></path>
                <path d="M544.5 44h0"></path>
                <path d="M356 44h12"></path>
                <g class="non-terminal ">
                  <path d="M368 44h0"></path>
                  <path d="M532.5 44h0"></path>
                  <rect x="368" y="33" width="164.5" height="22"></rect>
                  <text x="450.25" y="48">statement-if-true</text>
                </g>
                <path d="M532.5 44h12"></path>
                <path d="M368 44a12 12 0 0 0 -12 12v0a12 12 0 0 0 12 12"></path>
                <g>
                  <path d="M368 68h164.5"></path>
                </g>
                <path d="M532.5 68a12 12 0 0 0 12 -12v0a12 12 0 0 0 -12 -12"></path>
              </g>
              <path d="M544.5 44h24"></path>
            </g>
            <path d="M568.5 44h10"></path>
            <g class="terminal ">
              <path d="M578.5 44h0"></path>
              <path d="M624 44h0"></path>
              <rect x="578.5" y="33" width="45.5" height="22" rx="10" ry="10"></rect>
              <text x="601.25" y="48">END</text>
            </g>
          </g>
          <path d="M624 44h24"></path>
          <path d="M235.5 44a12 12 0 0 1 12 12v21a12 12 0 0 0 12 12"></path>
          <g class="non-terminal ">
            <path d="M259.5 89h100"></path>
            <path d="M524 89h100"></path>
            <rect x="359.5" y="78" width="164.5" height="22"></rect>
            <text x="441.75" y="93">statement-if-true</text>
          </g>
          <path d="M624 89a12 12 0 0 0 12 -12v-21a12 12 0 0 1 12 -12"></path>
        </g>
      </g>
      <path d="M658 44a12 12 0 0 1 12 12v42a12 12 0 0 1 -12 12h-596a12 12 0 0 0 -12 12v0a12 12 0 0 0 12 12"></path>
      <g>
        <path d="M62 134h31.5"></path>
        <path d="M626.5 134h31.5"></path>
        <g>
          <path d="M93.5 134h0"></path>
          <path d="M626.5 134h0"></path>
          <path d="M93.5 134h24"></path>
          <g>
            <path d="M117.5 134h485"></path>
          </g>
          <path d="M602.5 134h24"></path>
          <path d="M93.5 134a12 12 0 0 1 12 12v10a12 12 0 0 0 12 12"></path>
          <g>
            <path d="M117.5 168h0"></path>
            <path d="M602.5 168h0"></path>
            <g class="terminal ">
              <path d="M117.5 168h0"></path>
              <path d="M171.5 168h0"></path>
              <rect x="117.5" y="157" width="54" height="22" rx="10" ry="10"></rect>
              <text x="144.5" y="172">ELSE</text>
            </g>
            <path d="M171.5 168h10"></path>
            <g>
              <path d="M181.5 168h0"></path>
              <path d="M602.5 168h0"></path>
              <path d="M181.5 168h24"></path>
              <g>
                <path d="M205.5 168h0"></path>
                <path d="M578.5 168h0"></path>
                <g class="terminal ">
                  <path d="M205.5 168h0"></path>
                  <path d="M268 168h0"></path>
                  <rect x="205.5" y="157" width="62.5" height="22" rx="10" ry="10"></rect>
                  <text x="236.75" y="172">BEGIN</text>
                </g>
                <path d="M268 168h10"></path>
                <g>
                  <path d="M278 168h0"></path>
                  <path d="M523 168h0"></path>
                  <path d="M278 168a12 12 0 0 0 12 -12v0a12 12 0 0 1 12 -12"></path>
                  <g>
                    <path d="M302 144h197"></path>
                  </g>
                  <path d="M499 144a12 12 0 0 1 12 12v0a12 12 0 0 0 12 12"></path>
                  <path d="M278 168h24"></path>
                  <g>
                    <path d="M302 168h0"></path>
                    <path d="M499 168h0"></path>
                    <path d="M302 168h12"></path>
                    <g class="non-terminal ">
                      <path d="M314 168h0"></path>
                      <path d="M487 168h0"></path>
                      <rect x="314" y="157" width="173" height="22"></rect>
                      <text x="400.5" y="172">statement-if-false</text>
                    </g>
                    <path d="M487 168h12"></path>
                    <path d="M314 168a12 12 0 0 0 -12 12v0a12 12 0 0 0 12 12"></path>
                    <g>
                      <path d="M314 192h173"></path>
                    </g>
                    <path d="M487 192a12 12 0 0 0 12 -12v0a12 12 0 0 0 -12 -12"></path>
                  </g>
                  <path d="M499 168h24"></path>
                </g>
                <path d="M523 168h10"></path>
                <g class="terminal ">
                  <path d="M533 168h0"></path>
                  <path d="M578.5 168h0"></path>
                  <rect x="533" y="157" width="45.5" height="22" rx="10" ry="10"></rect>
                  <text x="555.75" y="172">END</text>
                </g>
              </g>
              <path d="M578.5 168h24"></path>
              <path d="M181.5 168a12 12 0 0 1 12 12v21a12 12 0 0 0 12 12"></path>
              <g class="non-terminal ">
                <path d="M205.5 213h100"></path>
                <path d="M478.5 213h100"></path>
                <rect x="305.5" y="202" width="173" height="22"></rect>
                <text x="392" y="217">statement-if-false</text>
              </g>
              <path d="M578.5 213a12 12 0 0 0 12 -12v-21a12 12 0 0 1 12 -12"></path>
            </g>
          </g>
          <path d="M602.5 168a12 12 0 0 0 12 -12v-10a12 12 0 0 1 12 -12"></path>
        </g>
      </g>
      <path d="M658 134h12"></path>
      <path d="M670 134h0"></path>
    </g>
    <path d="M670 134h10"></path>
    <path d="M 680 134 h 20 m -10 -10 v 20 m 10 -20 v 20"></path>
  </g>
  <style>
    svg.railroad-diagram {
      
    }
    svg.railroad-diagram path {
      stroke-width: 3;
      stroke: black;
      fill: rgba(0, 0, 0, 0);
    }
    svg.railroad-diagram text {
      font: bold 14px monospace;
      text-anchor: middle;
      white-space: pre;
    }
    svg.railroad-diagram text.diagram-text {
      font-size: 12px;
    }
    svg.railroad-diagram text.diagram-arrow {
      font-size: 16px;
    }
    svg.railroad-diagram text.label {
      text-anchor: start;
    }
    svg.railroad-diagram text.comment {
      font: bold 12px monospace;
      fill: Orchid;
    }
    svg.railroad-diagram rect {
      stroke-width: 3;
      stroke: black;
      fill: PaleGreen;
    }
    svg.railroad-diagram rect.group-box {
      stroke: Plum;
      stroke-dasharray: 10 5;
      fill: none;
    }
    svg.railroad-diagram path.diagram-text {
      stroke-width: 3;
      stroke: black;
      fill: white;
      cursor: help;
    }
    svg.railroad-diagram g.diagram-text:hover path.diagram-text {
      fill: #eee;
    }
    svg.railroad-diagram g.optional-path rect {
      fill: PaleTurquoise;
    }
    
    @media (prefers-color-scheme: dark) {
      .day.dark-scheme {
        background: #333;
        color: white;
      }
      .night.dark-scheme {
        background: black;
        color: #ddd;
      }
    }
    
    @media (prefers-color-scheme: light) {
      svg.railroad-diagram {
        
      }
      svg.railroad-diagram path {
        stroke: black;
        fill: rgba(0, 0, 0, 0);
      }
      svg.railroad-diagram text.comment {
        fill: Orchid;
      }
      svg.railroad-diagram rect {
        stroke: black;
        fill: PaleGreen;
      }
      svg.railroad-diagram rect.group-box {
        stroke: Plum;
      }
      svg.railroad-diagram path.diagram-text {
        stroke: black;
        fill: white;
      }
      svg.railroad-diagram g.diagram-text:hover path.diagram-text {
        fill: #eee;
      }
      svg.railroad-diagram g.optional-path rect {
        fill: PaleTurquoise;
      }
    }
    
    @media (prefers-color-scheme: dark) {
      svg.railroad-diagram {
        background-color: #21222c;
      }
      svg.railroad-diagram path {
        stroke: silver;
        fill: rgba(0, 0, 0, 0);
      }
      svg.railroad-diagram text {
        fill: whitesmoke;
      }
      svg.railroad-diagram text.comment {
        fill: Orchid;
      }
      svg.railroad-diagram rect {
        stroke: silver;
        fill: DarkGreen;
      }
      svg.railroad-diagram rect.group-box {
        stroke: Plum;
      }
      svg.railroad-diagram path.diagram-text {
        stroke: silver;
        fill: darkslategrey;
      }
      svg.railroad-diagram g.diagram-text:hover path.diagram-text {
        fill: dimgray;
      }
      svg.railroad-diagram g.optional-path rect {
        fill: RoyalBlue;
      }
    }
  </style>
</svg>
