<?xml version="1.0" encoding="UTF-8"?>
<svg xmlns="http://www.w3.org/2000/svg" xmlns:xlink="http://www.w3.org/1999/xlink" class="railroad-diagram" width="729" height="250" viewBox="0 0 729 250">
  <g transform="translate(.5 .5)">
    <g>
      <path d="M20 21v20m10 -20v20m-10 -10h20"></path>
    </g>
    <path d="M40 31h10"></path>
    <g>
      <path d="M50 31h0"></path>
      <path d="M50 31h12"></path>
      <g>
        <path d="M62 31h62.5"></path>
        <path d="M604.5 31h62.5"></path>
        <g class="terminal ">
          <path d="M124.5 31h0"></path>
          <path d="M195.5 31h0"></path>
          <rect x="124.5" y="20" width="71" height="22" rx="10" ry="10"></rect>
          <text x="160" y="35">IMPORT</text>
        </g>
        <path d="M195.5 31h10"></path>
        <g>
          <path d="M205.5 31h0"></path>
          <path d="M307.5 31h0"></path>
          <path d="M205.5 31h24"></path>
          <g class="terminal ">
            <path d="M229.5 31h4.25"></path>
            <path d="M279.25 31h4.25"></path>
            <rect x="233.75" y="20" width="45.5" height="22" rx="10" ry="10"></rect>
            <text x="256.5" y="35">TXT</text>
          </g>
          <path d="M283.5 31h24"></path>
          <path d="M205.5 31a12 12 0 0 1 12 12v8a12 12 0 0 0 12 12"></path>
          <g class="terminal ">
            <path d="M229.5 63h0"></path>
            <path d="M283.5 63h0"></path>
            <rect x="229.5" y="52" width="54" height="22" rx="10" ry="10"></rect>
            <text x="256.5" y="67">TEXT</text>
          </g>
          <path d="M283.5 63a12 12 0 0 0 12 -12v-8a12 12 0 0 1 12 -12"></path>
        </g>
        <path d="M307.5 31h10"></path>
        <g class="non-terminal ">
          <path d="M317.5 31h0"></path>
          <path d="M405.5 31h0"></path>
          <rect x="317.5" y="20" width="88" height="22"></rect>
          <text x="361.5" y="35">filename</text>
        </g>
        <path d="M405.5 31h10"></path>
        <path d="M415.5 31h10"></path>
        <g class="terminal ">
          <path d="M425.5 31h0"></path>
          <path d="M479.5 31h0"></path>
          <rect x="425.5" y="20" width="54" height="22" rx="10" ry="10"></rect>
          <text x="452.5" y="35">INTO</text>
        </g>
        <path d="M479.5 31h10"></path>
        <path d="M489.5 31h10"></path>
        <g class="non-terminal ">
          <path d="M499.5 31h0"></path>
          <path d="M604.5 31h0"></path>
          <rect x="499.5" y="20" width="105" height="22"></rect>
          <text x="552" y="35">table-name</text>
        </g>
      </g>
      <path d="M667 31a12 12 0 0 1 12 12v29a12 12 0 0 1 -12 12h-605a12 12 0 0 0 -12 12v0a12 12 0 0 0 12 12"></path>
      <g>
        <path d="M62 108h10"></path>
        <path d="M657 108h10"></path>
        <g>
          <path d="M72 108h0"></path>
          <path d="M657 108h0"></path>
          <path d="M72 108h24"></path>
          <g>
            <path d="M96 108h537"></path>
          </g>
          <path d="M633 108h24"></path>
          <path d="M72 108a12 12 0 0 1 12 12v0a12 12 0 0 0 12 12"></path>
          <g>
            <path d="M96 132h0"></path>
            <path d="M633 132h0"></path>
            <g class="terminal ">
              <path d="M96 132h0"></path>
              <path d="M124.5 132h0"></path>
              <rect x="96" y="121" width="28.5" height="22" rx="10" ry="10"></rect>
              <text x="110.25" y="136">(</text>
            </g>
            <path d="M124.5 132h10"></path>
            <path d="M134.5 132h10"></path>
            <g class="non-terminal ">
              <path d="M144.5 132h0"></path>
              <path d="M360 132h0"></path>
              <rect x="144.5" y="121" width="215.5" height="22"></rect>
              <text x="252.25" y="136">line-number-column-name</text>
            </g>
            <path d="M360 132h10"></path>
            <path d="M370 132h10"></path>
            <g class="terminal ">
              <path d="M380 132h0"></path>
              <path d="M408.5 132h0"></path>
              <rect x="380" y="121" width="28.5" height="22" rx="10" ry="10"></rect>
              <text x="394.25" y="136">,</text>
            </g>
            <path d="M408.5 132h10"></path>
            <path d="M418.5 132h10"></path>
            <g class="non-terminal ">
              <path d="M428.5 132h0"></path>
              <path d="M584.5 132h0"></path>
              <rect x="428.5" y="121" width="156" height="22"></rect>
              <text x="506.5" y="136">text-column-name</text>
            </g>
            <path d="M584.5 132h10"></path>
            <path d="M594.5 132h10"></path>
            <g class="terminal ">
              <path d="M604.5 132h0"></path>
              <path d="M633 132h0"></path>
              <rect x="604.5" y="121" width="28.5" height="22" rx="10" ry="10"></rect>
              <text x="618.75" y="136">)</text>
            </g>
          </g>
          <path d="M633 132a12 12 0 0 0 12 -12v0a12 12 0 0 1 12 -12"></path>
        </g>
      </g>
      <path d="M667 108a12 12 0 0 1 12 12v21a12 12 0 0 1 -12 12h-605a12 12 0 0 0 -12 12v10a12 12 0 0 0 12 12"></path>
      <g>
        <path d="M62 187h80"></path>
        <path d="M587 187h80"></path>
        <g>
          <path d="M142 187h0"></path>
          <path d="M587 187h0"></path>
          <path d="M142 187a12 12 0 0 0 12 -12v0a12 12 0 0 1 12 -12"></path>
          <g>
            <path d="M166 163h397"></path>
          </g>
          <path d="M563 163a12 12 0 0 1 12 12v0a12 12 0 0 0 12 12"></path>
          <path d="M142 187h24"></path>
          <g>
            <path d="M166 187h0"></path>
            <path d="M563 187h0"></path>
            <g class="terminal ">
              <path d="M166 187h0"></path>
              <path d="M245.5 187h0"></path>
              <rect x="166" y="176" width="79.5" height="22" rx="10" ry="10"></rect>
              <text x="205.75" y="191">OPTIONS</text>
            </g>
            <path d="M245.5 187h10"></path>
            <path d="M255.5 187h10"></path>
            <g class="terminal ">
              <path d="M265.5 187h0"></path>
              <path d="M294 187h0"></path>
              <rect x="265.5" y="176" width="28.5" height="22" rx="10" ry="10"></rect>
              <text x="279.75" y="191">(</text>
            </g>
            <path d="M294 187h10"></path>
            <path d="M304 187h10"></path>
            <g>
              <path d="M314 187h0"></path>
              <path d="M514.5 187h0"></path>
              <path d="M314 187h12"></path>
              <g>
                <path d="M326 187h0"></path>
                <path d="M502.5 187h0"></path>
                <g class="non-terminal ">
                  <path d="M326 187h0"></path>
                  <path d="M371.5 187h0"></path>
                  <rect x="326" y="176" width="45.5" height="22"></rect>
                  <text x="348.75" y="191">key</text>
                </g>
                <path d="M371.5 187h10"></path>
                <path d="M381.5 187h10"></path>
                <g class="terminal ">
                  <path d="M391.5 187h0"></path>
                  <path d="M420 187h0"></path>
                  <rect x="391.5" y="176" width="28.5" height="22" rx="10" ry="10"></rect>
                  <text x="405.75" y="191">:</text>
                </g>
                <path d="M420 187h10"></path>
                <path d="M430 187h10"></path>
                <g class="non-terminal ">
                  <path d="M440 187h0"></path>
                  <path d="M502.5 187h0"></path>
                  <rect x="440" y="176" width="62.5" height="22"></rect>
                  <text x="471.25" y="191">value</text>
                </g>
              </g>
              <path d="M502.5 187h12"></path>
              <path d="M326 187a12 12 0 0 0 -12 12v8a12 12 0 0 0 12 12"></path>
              <g class="terminal ">
                <path d="M326 219h74"></path>
                <path d="M428.5 219h74"></path>
                <rect x="400" y="208" width="28.5" height="22" rx="10" ry="10"></rect>
                <text x="414.25" y="223">,</text>
              </g>
              <path d="M502.5 219a12 12 0 0 0 12 -12v-8a12 12 0 0 0 -12 -12"></path>
            </g>
            <path d="M514.5 187h10"></path>
            <path d="M524.5 187h10"></path>
            <g class="terminal ">
              <path d="M534.5 187h0"></path>
              <path d="M563 187h0"></path>
              <rect x="534.5" y="176" width="28.5" height="22" rx="10" ry="10"></rect>
              <text x="548.75" y="191">)</text>
            </g>
          </g>
          <path d="M563 187h24"></path>
        </g>
      </g>
      <path d="M667 187h12"></path>
      <path d="M679 187h0"></path>
    </g>
    <path d="M679 187h10"></path>
    <path d="M 689 187 h 20 m -10 -10 v 20 m 10 -20 v 20"></path>
  </g>
  <style>
    svg.railroad-diagram {
      
    }
    svg.railroad-diagram path {
      stroke-width: 3;
      stroke: black;
      fill: rgba(0, 0, 0, 0);
    }
    svg.railroad-diagram text {
      font: bold 14px monospace;
      text-anchor: middle;
      white-space: pre;
    }
    svg.railroad-diagram text.diagram-text {
      font-size: 12px;
    }
    svg.railroad-diagram text.diagram-arrow {
      font-size: 16px;
    }
    svg.railroad-diagram text.label {
      text-anchor: start;
    }
    svg.railroad-diagram text.comment {
      font: bold 12px monospace;
      fill: Orchid;
    }
    svg.railroad-diagram rect {
      stroke-width: 3;
      stroke: black;
      fill: PaleGreen;
    }
    svg.railroad-diagram rect.group-box {
      stroke: Plum;
      stroke-dasharray: 10 5;
      fill: none;
    }
    svg.railroad-diagram path.diagram-text {
      stroke-width: 3;
      stroke: black;
      fill: white;
      cursor: help;
    }
    svg.railroad-diagram g.diagram-text:hover path.diagram-text {
      fill: #eee;
    }
    svg.railroad-diagram g.optional-path rect {
      fill: PaleTurquoise;
    }
    
    @media (prefers-color-scheme: dark) {
      .day.dark-scheme {
        background: #333;
        color: white;
      }
      .night.dark-scheme {
        background: black;
        color: #ddd;
      }
    }
    
    @media (prefers-color-scheme: light) {
      svg.railroad-diagram {
        
      }
      svg.railroad-diagram path {
        stroke: black;
        fill: rgba(0, 0, 0, 0);
      }
      svg.railroad-diagram text.comment {
        fill: Orchid;
      }
      svg.railroad-diagram rect {
        stroke: black;
        fill: PaleGreen;
      }
      svg.railroad-diagram rect.group-box {
        stroke: Plum;
      }
      svg.railroad-diagram path.diagram-text {
        stroke: black;
        fill: white;
      }
      svg.railroad-diagram g.diagram-text:hover path.diagram-text {
        fill: #eee;
      }
      svg.railroad-diagram g.optional-path rect {
        fill: PaleTurquoise;
      }
    }
    
    @media (prefers-color-scheme: dark) {
      svg.railroad-diagram {
        background-color: #21222c;
      }
      svg.railroad-diagram path {
        stroke: silver;
        fill: rgba(0, 0, 0, 0);
      }
      svg.railroad-diagram text {
        fill: whitesmoke;
      }
      svg.railroad-diagram text.comment {
        fill: Orchid;
      }
      svg.railroad-diagram rect {
        stroke: silver;
        fill: DarkGreen;
      }
      svg.railroad-diagram rect.group-box {
        stroke: Plum;
      }
      svg.railroad-diagram path.diagram-text {
        stroke: silver;
        fill: darkslategrey;
      }
      svg.railroad-diagram g.diagram-text:hover path.diagram-text {
        fill: dimgray;
      }
      svg.railroad-diagram g.optional-path rect {
        fill: RoyalBlue;
      }
    }
  </style>
</svg>
