<?xml version="1.0" encoding="UTF-8"?>
<svg xmlns="http://www.w3.org/2000/svg" xmlns:xlink="http://www.w3.org/1999/xlink" class="railroad-diagram" width="623.5" height="120" viewBox="0 0 623.5 120">
  <g transform="translate(.5 .5)">
    <g>
      <path d="M20 34v20m10 -20v20m-10 -10h20"></path>
    </g>
    <path d="M40 44h10"></path>
    <g class="terminal ">
      <path d="M50 44h0"></path>
      <path d="M112.5 44h0"></path>
      <rect x="50" y="33" width="62.5" height="22" rx="10" ry="10"></rect>
      <text x="81.25" y="48">WHILE</text>
    </g>
    <path d="M112.5 44h10"></path>
    <path d="M122.5 44h10"></path>
    <g class="non-terminal ">
      <path d="M132.5 44h0"></path>
      <path d="M229 44h0"></path>
      <rect x="132.5" y="33" width="96.5" height="22"></rect>
      <text x="180.75" y="48">condition</text>
    </g>
    <path d="M229 44h10"></path>
    <g>
      <path d="M239 44h0"></path>
      <path d="M583.5 44h0"></path>
      <path d="M239 44h24"></path>
      <g>
        <path d="M263 44h0"></path>
        <path d="M559.5 44h0"></path>
        <g class="terminal ">
          <path d="M263 44h0"></path>
          <path d="M325.5 44h0"></path>
          <rect x="263" y="33" width="62.5" height="22" rx="10" ry="10"></rect>
          <text x="294.25" y="48">BEGIN</text>
        </g>
        <path d="M325.5 44h10"></path>
        <g>
          <path d="M335.5 44h0"></path>
          <path d="M504 44h0"></path>
          <path d="M335.5 44a12 12 0 0 0 12 -12v0a12 12 0 0 1 12 -12"></path>
          <g>
            <path d="M359.5 20h120.5"></path>
          </g>
          <path d="M480 20a12 12 0 0 1 12 12v0a12 12 0 0 0 12 12"></path>
          <path d="M335.5 44h24"></path>
          <g>
            <path d="M359.5 44h0"></path>
            <path d="M480 44h0"></path>
            <path d="M359.5 44h12"></path>
            <g class="non-terminal ">
              <path d="M371.5 44h0"></path>
              <path d="M468 44h0"></path>
              <rect x="371.5" y="33" width="96.5" height="22"></rect>
              <text x="419.75" y="48">statement</text>
            </g>
            <path d="M468 44h12"></path>
            <path d="M371.5 44a12 12 0 0 0 -12 12v0a12 12 0 0 0 12 12"></path>
            <g>
              <path d="M371.5 68h96.5"></path>
            </g>
            <path d="M468 68a12 12 0 0 0 12 -12v0a12 12 0 0 0 -12 -12"></path>
          </g>
          <path d="M480 44h24"></path>
        </g>
        <path d="M504 44h10"></path>
        <g class="terminal ">
          <path d="M514 44h0"></path>
          <path d="M559.5 44h0"></path>
          <rect x="514" y="33" width="45.5" height="22" rx="10" ry="10"></rect>
          <text x="536.75" y="48">END</text>
        </g>
      </g>
      <path d="M559.5 44h24"></path>
      <path d="M239 44a12 12 0 0 1 12 12v21a12 12 0 0 0 12 12"></path>
      <g class="non-terminal ">
        <path d="M263 89h100"></path>
        <path d="M459.5 89h100"></path>
        <rect x="363" y="78" width="96.5" height="22"></rect>
        <text x="411.25" y="93">statement</text>
      </g>
      <path d="M559.5 89a12 12 0 0 0 12 -12v-21a12 12 0 0 1 12 -12"></path>
    </g>
    <path d="M 583.5 44 h 20 m -10 -10 v 20 m 10 -20 v 20"></path>
  </g>
  <style>
    svg.railroad-diagram {
      
    }
    svg.railroad-diagram path {
      stroke-width: 3;
      stroke: black;
      fill: rgba(0, 0, 0, 0);
    }
    svg.railroad-diagram text {
      font: bold 14px monospace;
      text-anchor: middle;
      white-space: pre;
    }
    svg.railroad-diagram text.diagram-text {
      font-size: 12px;
    }
    svg.railroad-diagram text.diagram-arrow {
      font-size: 16px;
    }
    svg.railroad-diagram text.label {
      text-anchor: start;
    }
    svg.railroad-diagram text.comment {
      font: bold 12px monospace;
      fill: Orchid;
    }
    svg.railroad-diagram rect {
      stroke-width: 3;
      stroke: black;
      fill: PaleGreen;
    }
    svg.railroad-diagram rect.group-box {
      stroke: Plum;
      stroke-dasharray: 10 5;
      fill: none;
    }
    svg.railroad-diagram path.diagram-text {
      stroke-width: 3;
      stroke: black;
      fill: white;
      cursor: help;
    }
    svg.railroad-diagram g.diagram-text:hover path.diagram-text {
      fill: #eee;
    }
    svg.railroad-diagram g.optional-path rect {
      fill: PaleTurquoise;
    }
    
    @media (prefers-color-scheme: dark) {
      .day.dark-scheme {
        background: #333;
        color: white;
      }
      .night.dark-scheme {
        background: black;
        color: #ddd;
      }
    }
    
    @media (prefers-color-scheme: light) {
      svg.railroad-diagram {
        
      }
      svg.railroad-diagram path {
        stroke: black;
        fill: rgba(0, 0, 0, 0);
      }
      svg.railroad-diagram text.comment {
        fill: Orchid;
      }
      svg.railroad-diagram rect {
        stroke: black;
        fill: PaleGreen;
      }
      svg.railroad-diagram rect.group-box {
        stroke: Plum;
      }
      svg.railroad-diagram path.diagram-text {
        stroke: black;
        fill: white;
      }
      svg.railroad-diagram g.diagram-text:hover path.diagram-text {
        fill: #eee;
      }
      svg.railroad-diagram g.optional-path rect {
        fill: PaleTurquoise;
      }
    }
    
    @media (prefers-color-scheme: dark) {
      svg.railroad-diagram {
        background-color: #21222c;
      }
      svg.railroad-diagram path {
        stroke: silver;
        fill: rgba(0, 0, 0, 0);
      }
      svg.railroad-diagram text {
        fill: whitesmoke;
      }
      svg.railroad-diagram text.comment {
        fill: Orchid;
      }
      svg.railroad-diagram rect {
        stroke: silver;
        fill: DarkGreen;
      }
      svg.railroad-diagram rect.group-box {
        stroke: Plum;
      }
      svg.railroad-diagram path.diagram-text {
        stroke: silver;
        fill: darkslategrey;
      }
      svg.railroad-diagram g.diagram-text:hover path.diagram-text {
        fill: dimgray;
      }
      svg.railroad-diagram g.optional-path rect {
        fill: RoyalBlue;
      }
    }
  </style>
</svg>
