<?xml version="1.0" encoding="UTF-8" standalone="no"?>
<!-- Created with Inkscape (http://www.inkscape.org/) -->

<svg
   xmlns:dc="http://purl.org/dc/elements/1.1/"
   xmlns:cc="http://creativecommons.org/ns#"
   xmlns:rdf="http://www.w3.org/1999/02/22-rdf-syntax-ns#"
   xmlns:svg="http://www.w3.org/2000/svg"
   xmlns="http://www.w3.org/2000/svg"
   xmlns:sodipodi="http://sodipodi.sourceforge.net/DTD/sodipodi-0.dtd"
   xmlns:inkscape="http://www.inkscape.org/namespaces/inkscape"
   width="32"
   height="32"
   id="svg3344"
   version="1.1"
   inkscape:version="0.91 r13725"
   viewBox="0 0 32 32"
   sodipodi:docname="SqlNotebookIcon.svg"
   inkscape:export-filename="C:\Projects\sqlnotebook\src\SqlNotebook\Resources\SqlNotebookIcon.png"
   inkscape:export-xdpi="720"
   inkscape:export-ydpi="720">
  <defs
     id="defs3346" />
  <sodipodi:namedview
     id="base"
     pagecolor="#ffffff"
     bordercolor="#666666"
     borderopacity="1.0"
     inkscape:pageopacity="0.0"
     inkscape:pageshadow="2"
     inkscape:zoom="22.395604"
     inkscape:cx="18.598639"
     inkscape:cy="13.201672"
     inkscape:current-layer="layer1"
     showgrid="true"
     inkscape:grid-bbox="true"
     inkscape:document-units="px"
     showguides="false"
     inkscape:window-width="2556"
     inkscape:window-height="1307"
     inkscape:window-x="-8"
     inkscape:window-y="-8"
     inkscape:window-maximized="1">
    <inkscape:grid
       type="xygrid"
       id="grid3354" />
  </sodipodi:namedview>
  <metadata
     id="metadata3349">
    <rdf:RDF>
      <cc:Work
         rdf:about="">
        <dc:format>image/svg+xml</dc:format>
        <dc:type
           rdf:resource="http://purl.org/dc/dcmitype/StillImage" />
        <dc:title />
      </cc:Work>
    </rdf:RDF>
  </metadata>
  <g
     id="layer1"
     inkscape:label="Layer 1"
     inkscape:groupmode="layer">
    <rect
       style="fill:#2ca089;fill-opacity:1;stroke:#ffffff;stroke-width:0;stroke-linejoin:round;stroke-miterlimit:4;stroke-dasharray:none"
       id="rect4157"
       width="32"
       height="32"
       x="0"
       y="0"
       rx="5"
       ry="5" />
    <path
       style="fill:#afe9dd;fill-opacity:1"
       d="m 11.994776,3.1185806 c -4.9387574,0 -8.942484,1.2511445 -8.942484,2.7946333 l 0,3.2404764 c 0,1.5268467 3.9218397,2.7629317 8.787037,2.7895067 l 0,-0.623496 c 0,-0.324638 0.112274,-0.603221 0.341643,-0.833606 L 13.631243,9.0306991 C 13.860553,8.8013344 14.138504,8.682224 14.463142,8.682224 l 6.47412,0 0,-2.7690101 c 0,-1.5434888 -4.003726,-2.7946333 -8.942486,-2.7946333 z m 0,1.5476393 c 2.90632,0 5.262999,0.561926 5.262999,1.2572434 0,0.6942696 -2.35675,1.2572432 -5.262999,1.2572433 -2.9068081,0 -5.2629974,-0.5630435 -5.2629974,-1.2572433 0,-0.6953174 2.3561198,-1.2572434 5.2629974,-1.2572434 z m -8.942484,5.9394501 0,4.137285 c 0,1.526846 3.9218397,2.762934 8.787037,2.789509 l 0,-4.137288 C 6.9741317,13.368601 3.052292,12.132514 3.052292,10.60567 Z m 0,5.589264 0,4.248321 c 0,1.526845 3.9218397,2.762934 8.787037,2.789509 l 0,-4.24832 C 6.9741317,18.95787 3.052292,17.72185 3.052292,16.194934 Z"
       id="path4159"
       inkscape:connector-curvature="0" />
    <path
       style="clip-rule:evenodd;fill:#ffffff;fill-opacity:1;fill-rule:evenodd"
       d="m 15.438532,9.4885515 c -0.324638,0 -0.600879,0.1174021 -0.83019,0.3467668 l -1.45198,1.4571047 c -0.229368,0.230384 -0.339934,0.508968 -0.339934,0.833607 l 0,15.484933 c 0,0.649222 0.520366,1.178665 1.170125,1.178665 l 11.578255,0 c 0.649812,0 1.190623,-0.529443 1.190623,-1.178665 l 0,-14.794817 c 0,-0.649277 -0.540812,-1.182081 -1.190623,-1.182081 l -11.149494,0 1.071048,-1.072757 11.740535,0 c 0.324579,0 0.601291,0.269872 0.601291,0.594458 l 0,16.562814 0.725989,-0.72599 c 0.22936,-0.229847 0.346767,-0.510677 0.346767,-0.835315 l 0,-15.484933 c 0,-0.64976 -0.542573,-1.1837905 -1.192331,-1.1837905 l -12.270081,0 z"
       id="path4173"
       inkscape:connector-curvature="0" />
  </g>
</svg>
